<svg xmlns="http://www.w3.org/2000/svg" viewBox="0 0 64 64" fill="none">
  <g>
    <path d="M10 38 L10 30 L8 26 L9 22 L12 18 L14 16 L16 12 L20 9 L24 7 L28 6 L34 6 L40 7 L46 10 L50 14 L52 18 L54 16 L56 18 L54 22 L52 22 L54 26 L56 30 L56 34 L54 36 L50 38" fill="#10b981" stroke="#047857" stroke-width="1.2" stroke-linejoin="round"/>
    <path d="M26 38 L30 36 L36 36 L42 38 L48 40 L52 42 L56 46 L54 48 L50 50 L44 50 L38 48 L32 48 L26 46 L20 44 L16 42 L14 40 L18 38 Z" fill="#059669" stroke="#047857" stroke-width="1.2" stroke-linejoin="round"/>
    <path d="M14 38 L18 34 L24 32 L26 38" fill="#0d9668" stroke="#047857" stroke-width="0.8"/>
    <path d="M36 36 L37 40 L38 36 L39.5 41 L41 36 L42.5 40.5 L44 36 L45.5 40 L47 37 L48.5 40 L50 38" fill="none" stroke="#f0fdf4" stroke-width="1.4" stroke-linecap="round" stroke-linejoin="round"/>
    <path d="M34 42 L35 39 L36.5 42 L38 38.5 L39.5 42 L41 39 L42.5 42 L44 39 L45.5 42 L47 40 L48.5 42" fill="none" stroke="#d1fae5" stroke-width="1.2" stroke-linecap="round" stroke-linejoin="round"/>
    <ellipse cx="24" cy="18" rx="5" ry="4.5" fill="#064e3b" stroke="#047857" stroke-width="0.8"/>
    <ellipse cx="24" cy="18" rx="3" ry="2.8" fill="#0f172a"/>
    <ellipse cx="23" cy="17.5" rx="1.2" ry="1.8" fill="#dc2626"/>
    <circle cx="22.5" cy="17" r="0.5" fill="#fca5a5" opacity="0.7"/>
    <path d="M16 16 L20 13 L28 13 L32 15" fill="none" stroke="#047857" stroke-width="1.5" stroke-linecap="round"/>
    <ellipse cx="52" cy="20" rx="1.5" ry="1" fill="#064e3b"/>
    <path d="M30 10 L32 14" stroke="#047857" stroke-width="0.6" opacity="0.6"/>
    <path d="M36 9 L37 13" stroke="#047857" stroke-width="0.6" opacity="0.6"/>
    <path d="M42 10 L42 14" stroke="#047857" stroke-width="0.6" opacity="0.6"/>
    <path d="M46 12 L45 16" stroke="#047857" stroke-width="0.6" opacity="0.6"/>
    <path d="M14 16 L11 10 L16 12" fill="#059669" stroke="#047857" stroke-width="0.8" stroke-linejoin="round"/>
    <path d="M18 12 L16 6 L22 9" fill="#059669" stroke="#047857" stroke-width="0.8" stroke-linejoin="round"/>
    <path d="M24 9 L24 3 L30 6" fill="#059669" stroke="#047857" stroke-width="0.8" stroke-linejoin="round"/>
    <path d="M16 42 L22 40 L28 40" fill="none" stroke="#047857" stroke-width="0.6" opacity="0.5"/>
    <path d="M44 16 L46 18 L44 20" fill="none" stroke="#047857" stroke-width="0.5" opacity="0.4"/>
    <path d="M48 18 L50 20 L48 22" fill="none" stroke="#047857" stroke-width="0.5" opacity="0.4"/>
    <path d="M10 38 L12 42 L14 44 L14 40" fill="#0d9668" stroke="#047857" stroke-width="0.8"/>
  </g>
</svg>
